<?xml version="1.0" encoding="UTF-8"?>
<svg width="643px" height="55px" viewBox="0 0 643 55" version="1.1" xmlns="http://www.w3.org/2000/svg" xmlns:xlink="http://www.w3.org/1999/xlink">
    <!-- Generator: Sketch 49.3 (51167) - http://www.bohemiancoding.com/sketch -->
    <title>Artboard Copy 6</title>
    <desc>Created with Sketch.</desc>
    <defs></defs>
    <g id="Artboard-Copy-6" stroke="none" stroke-width="1" fill="none" fill-rule="evenodd">
        <g id="Group-2" fill="#000000">
            <path d="M0.929,54 L0.929,22.194 L11.903,22.194 L11.903,25.542 L12.027,25.542 C14.507,23.062 17.669,21.264 21.141,21.264 C25.357,21.264 30.007,22.814 32.239,27.092 C35.587,23.062 39.307,21.264 42.779,21.264 C48.607,21.264 55.179,24.178 55.179,33.044 L55.179,54 L44.205,54 L44.205,36.02 C44.205,32.858 42.531,30.068 38.625,30.068 C35.153,30.068 33.665,32.61 33.541,35.028 L33.541,54 L22.567,54 L22.567,36.02 C22.567,32.858 20.893,30.068 16.987,30.068 C13.329,30.068 11.903,32.858 11.903,35.4 L11.903,54 L0.929,54 Z M67.641,2.54 C71.237,2.54 74.151,5.454 74.151,9.05 C74.151,12.646 71.237,15.56 67.641,15.56 C64.045,15.56 61.131,12.646 61.131,9.05 C61.131,5.454 64.045,2.54 67.641,2.54 Z M61.999,22.194 L72.973,22.194 L72.973,54 L61.999,54 L61.999,22.194 Z M97.649,30.254 C93.495,30.254 90.085,33.726 90.085,38.066 C90.085,42.468 93.495,45.94 97.649,45.94 C100.935,45.94 102.981,44.452 102.981,44.452 L106.701,52.078 C106.701,52.078 103.105,54.93 96.037,54.93 C86.861,54.93 78.429,47.49 78.429,38.19 C78.429,28.828 86.799,21.264 96.037,21.264 C103.105,21.264 106.701,24.24 106.701,24.24 L102.981,31.742 C102.981,31.742 100.935,30.254 97.649,30.254 Z M111.165,54 L111.165,0.68 L122.139,0.68 L122.139,25.542 L122.263,25.542 C124.743,23.062 127.905,21.264 131.377,21.264 C137.205,21.264 145.327,24.178 145.327,33.044 L145.327,54 L134.353,54 L134.353,36.02 C134.353,32.858 132.183,29.82 128.649,29.82 C125.363,29.82 122.139,32.858 122.139,36.02 L122.139,54 L111.165,54 Z M184.325,39.616 L161.261,39.616 C161.261,44.514 165.353,46.188 168.143,46.188 C171.677,46.188 173.227,45.506 175.893,42.654 L183.829,46.622 C180.233,52.636 174.405,54.93 167.337,54.93 C157.727,54.93 149.853,47.366 149.853,38.128 C149.853,28.828 157.727,21.264 167.337,21.264 C177.009,21.264 184.387,26.968 184.387,38.128 C184.387,38.562 184.387,39.244 184.325,39.616 Z M161.571,33.54 L173.661,33.54 C173.165,30.192 170.871,28.394 167.647,28.394 C163.865,28.394 161.757,30.626 161.571,33.54 Z M189.533,54 L189.533,0.68 L200.507,0.68 L200.507,54 L189.533,54 Z M207.947,54 L207.947,0.68 L218.921,0.68 L218.921,54 L207.947,54 Z M258.539,39.616 L235.475,39.616 C235.475,44.514 239.567,46.188 242.357,46.188 C245.891,46.188 247.441,45.506 250.107,42.654 L258.043,46.622 C254.447,52.636 248.619,54.93 241.551,54.93 C231.941,54.93 224.067,47.366 224.067,38.128 C224.067,28.828 231.941,21.264 241.551,21.264 C251.223,21.264 258.601,26.968 258.601,38.128 C258.601,38.562 258.601,39.244 258.539,39.616 Z M235.785,33.54 L247.875,33.54 C247.379,30.192 245.085,28.394 241.861,28.394 C238.079,28.394 235.971,30.626 235.785,33.54 Z M263.747,54 L263.747,0.68 L274.721,0.68 L274.721,25.542 L274.845,25.542 C277.325,23.062 280.487,21.264 283.959,21.264 C289.787,21.264 297.909,24.178 297.909,33.044 L297.909,54 L286.935,54 L286.935,36.02 C286.935,32.858 284.765,29.82 281.231,29.82 C277.945,29.82 274.721,32.858 274.721,36.02 L274.721,54 L263.747,54 Z M302.435,38.128 C302.435,28.828 308.945,21.264 318.245,21.264 C322.523,21.264 326.057,22.69 328.661,25.232 L328.661,22.194 L339.635,22.194 L339.635,54 L328.785,54 L328.785,50.404 L328.661,50.404 C326.305,53.008 322.585,54.93 318.245,54.93 C308.945,54.93 302.435,47.428 302.435,38.128 Z M314.091,38.128 C314.091,42.468 317.067,45.568 321.531,45.568 C325.809,45.568 328.909,42.468 328.909,38.128 C328.909,33.726 325.623,30.626 321.531,30.626 C317.377,30.626 314.091,33.726 314.091,38.128 Z M347.075,54 L347.075,22.194 L358.049,22.194 L358.049,26.782 L358.173,26.782 C358.173,26.782 361.645,21.264 367.907,21.264 C371.999,21.264 374.851,23.248 374.851,23.248 L370.263,32.548 C370.263,32.548 368.217,30.812 364.559,30.812 C358.855,30.812 358.049,36.454 358.049,37.26 L358.049,54 L347.075,54 Z M386.011,22.194 L393.761,39.492 L401.511,22.194 L414.531,22.194 L397.481,54 L390.041,54 L372.991,22.194 L386.011,22.194 Z M449.189,39.616 L426.125,39.616 C426.125,44.514 430.217,46.188 433.007,46.188 C436.541,46.188 438.091,45.506 440.757,42.654 L448.693,46.622 C445.097,52.636 439.269,54.93 432.201,54.93 C422.591,54.93 414.717,47.366 414.717,38.128 C414.717,28.828 422.591,21.264 432.201,21.264 C441.873,21.264 449.251,26.968 449.251,38.128 C449.251,38.562 449.251,39.244 449.189,39.616 Z M426.435,33.54 L438.525,33.54 C438.029,30.192 435.735,28.394 432.511,28.394 C428.729,28.394 426.621,30.626 426.435,33.54 Z M454.397,54 L454.397,22.194 L465.371,22.194 L465.371,25.542 L465.495,25.542 C467.975,23.062 471.137,21.264 474.609,21.264 C480.437,21.264 488.559,24.178 488.559,33.044 L488.559,54 L477.585,54 L477.585,36.02 C477.585,32.858 475.415,29.82 471.881,29.82 C468.595,29.82 465.371,32.858 465.371,36.02 L465.371,54 L454.397,54 Z M533.943,30.254 C529.789,30.254 526.379,33.726 526.379,38.066 C526.379,42.468 529.789,45.94 533.943,45.94 C537.229,45.94 539.275,44.452 539.275,44.452 L542.995,52.078 C542.995,52.078 539.399,54.93 532.331,54.93 C523.155,54.93 514.723,47.49 514.723,38.19 C514.723,28.828 523.093,21.264 532.331,21.264 C539.399,21.264 542.995,24.24 542.995,24.24 L539.275,31.742 C539.275,31.742 537.229,30.254 533.943,30.254 Z M545.165,38.128 C545.165,28.208 553.597,21.264 564.323,21.264 C574.863,21.264 583.295,28.208 583.295,38.128 C583.295,47.924 575.297,54.93 564.323,54.93 C552.853,54.93 545.165,47.924 545.165,38.128 Z M556.821,38.128 C556.821,42.468 559.797,45.568 564.261,45.568 C568.539,45.568 571.639,42.468 571.639,38.128 C571.639,33.726 568.353,30.626 564.261,30.626 C560.107,30.626 556.821,33.726 556.821,38.128 Z M588.441,54 L588.441,22.194 L599.415,22.194 L599.415,25.542 L599.539,25.542 C602.019,23.062 605.181,21.264 608.653,21.264 C612.869,21.264 617.519,22.814 619.751,27.092 C623.099,23.062 626.819,21.264 630.291,21.264 C636.119,21.264 642.691,24.178 642.691,33.044 L642.691,54 L631.717,54 L631.717,36.02 C631.717,32.858 630.043,30.068 626.137,30.068 C622.665,30.068 621.177,32.61 621.053,35.028 L621.053,54 L610.079,54 L610.079,36.02 C610.079,32.858 608.405,30.068 604.499,30.068 C600.841,30.068 599.415,32.858 599.415,35.4 L599.415,54 L588.441,54 Z" id="michelleharven.com"></path>
        </g>
        <path d="M502.447,40.732 C506.415,40.732 509.577,43.894 509.577,47.862 C509.577,51.768 506.415,54.93 502.447,54.93 C498.541,54.93 495.379,51.768 495.379,47.862 C495.379,43.894 498.541,40.732 502.447,40.732 Z" id="Path" fill="#E7776C"></path>
    </g>
</svg>