<?xml version="1.0" encoding="UTF-8"?>
<svg width="384px" height="384px" viewBox="0 0 384 384" version="1.1" xmlns="http://www.w3.org/2000/svg" xmlns:xlink="http://www.w3.org/1999/xlink" style="background: #DC967F;">
    <!-- Generator: Sketch 49.2 (51160) - http://www.bohemiancoding.com/sketch -->
    <title>placeholder-image</title>
    <desc>Created with Sketch.</desc>
    <defs></defs>
    <g id="placeholder-image" stroke="none" stroke-width="1" fill="none" fill-rule="evenodd">
        <g id="align-left" transform="translate(87.000000, 110.000000)" fill="#FFF0D1" fill-rule="nonzero">
            <path d="M210,142.500004 L210,157.500004 C210,159.53125 209.257811,161.289069 207.77344,162.77344 C206.289062,164.257818 204.53125,165 202.499997,165 L7.500003,165 C5.46875,165 3.710938,164.257818 2.22656,162.77344 C0.742189,161.289069 0,159.53125 0,157.500004 L0,142.500004 C0,140.468751 0.742189,138.710939 2.22656,137.226568 C3.710938,135.74219 5.46875,135.000001 7.500003,135.000001 L202.499997,135.000001 C204.53125,135.000001 206.289062,135.74219 207.77344,137.226568 C209.257811,138.710939 210,140.468751 210,142.500004 Z M165.000003,97.4999994 L165.000003,112.499999 C165.000003,114.531252 164.257814,116.289064 162.773436,117.773442 C161.289065,119.257813 159.531253,120.000002 157.5,120.000002 L7.500003,120.000002 C5.46875,120.000002 3.710938,119.257813 2.22656,117.773442 C0.742189,116.289064 0,114.531252 0,112.499999 L0,97.4999994 C0,95.4687533 0.742189,93.7109413 2.22656,92.2265632 C3.710938,90.7421852 5.46875,90.0000032 7.500003,90.0000032 L157.5,90.0000032 C159.531253,90.0000032 161.289065,90.7421852 162.773436,92.2265632 C164.257814,93.7109413 165.000003,95.4687533 165.000003,97.4999994 Z M195.000001,52.5000013 L195.000001,67.5000006 C195.000001,69.5312537 194.257812,71.2890657 192.773434,72.7734368 C191.289063,74.2578148 189.531251,75.0000038 187.499998,75.0000038 L7.500003,75.0000038 C5.46875,75.0000038 3.710938,74.2578148 2.22656,72.7734368 C0.742189,71.2890657 0,69.5312537 0,67.5000006 L0,52.5000013 C0,50.4687482 0.742189,48.7109362 2.22656,47.2265651 C3.710938,45.7421871 5.46875,44.9999981 7.500003,44.9999981 L187.499998,44.9999981 C189.531251,44.9999981 191.289063,45.7421871 192.773434,47.2265651 C194.257812,48.7109362 195.000001,50.4687482 195.000001,52.5000013 Z M149.999997,7.49999618 L149.999997,22.5000025 C149.999997,24.5312486 149.257815,26.2890606 147.773437,27.7734387 C146.289066,29.2578097 144.531247,29.9999987 142.500001,29.9999987 L7.500003,29.9999987 C5.46875,29.9999987 3.710938,29.2578097 2.22656,27.7734387 C0.742189,26.2890606 0,24.5312486 0,22.5000025 L0,7.49999618 C0,5.46875013 0.742189,3.71093809 2.22656,2.22656005 C3.710938,0.742189018 5.46875,0 7.500003,0 L142.500001,0 C144.531247,0 146.289066,0.742189018 147.773437,2.22656005 C149.257815,3.71093809 149.999997,5.46875013 149.999997,7.49999618 Z" id="Shape"></path>
        </g>
    </g>
</svg>